# xmcd CD database file
#
# Track frame offsets:
#	150
#	14013
#	34338
#
# Disc length: 669 seconds
#
# Revision: 1
# Processed by: cddbd v1.5.2PL0 Copyright (c) Steve Scherf et al.
# Submitted via: CDex 1.70beta2
#
DISCID=21029b03
DTITLE=Indica - Island of Light (Promo only)
DYEAR=2010
DGENRE=Rock
TTITLE0=Island of light
TTITLE1=Scissor, paper, rock
TTITLE2=Straight and arrow
EXTD=YEAR: 2010
EXTT0=
EXTT1=
EXTT2=
PLAYORDER=
